<?xml version="1.0" encoding="utf-8"?>
<!-- Generator: Adobe Illustrator 19.2.1, SVG Export Plug-In . SVG Version: 6.00 Build 0)  -->
<svg version="1.1" id="Layer_1" xmlns="http://www.w3.org/2000/svg" xmlns:xlink="http://www.w3.org/1999/xlink" x="0px" y="0px"
	 viewBox="0 0 95 99.2" style="enable-background:new 0 0 95 99.2;" xml:space="preserve">
<style type="text/css">
	.st0{fill:#DC2B1C;}
</style>
<g>
	<g>
		<path class="st0" d="M15.2,26.7l0.5,0l0.5,0.1l0.5,0.1l0.5,0.1l0.5,0.2l0.4,0.2l0.4,0.2l0.4,0.3l0.4,0.3l0.4,0.3l0.4,0.3
			l21.6,21.3l0.3,0.3l0.2,0.3l0.2,0.4l0.1,0.4l0.1,0.4l0,0.4l0,0.4l-0.1,0.4l-0.1,0.4L42,53.8l-0.2,0.3l-0.3,0.3L20,75.7l-0.4,0.3
			l-0.4,0.3l-0.4,0.3l-0.4,0.3L18,77.1l-0.4,0.2l-0.5,0.2l-0.5,0.1l-0.5,0.1l-0.5,0.1l-0.5,0l-0.5,0h-4.6L36,52.3L10.2,26.7h4.6
			L15.2,26.7z"/>
		<path class="st0" d="M2.5,26.7l-0.5,0l-0.5,0.1l-0.4,0.2l-0.4,0.3l-0.3,0.4l-0.2,0.4L0,28.7l0,0.5l0,0.5l0.1,0.5l0.2,0.4l0.3,0.4
			l21.4,21.3L0.7,73.6L0.4,74l-0.2,0.4L0,74.9l0,0.5l0,0.5l0.1,0.5l0.2,0.4l0.3,0.4l0.4,0.3l0.4,0.2L2,77.8l0.5,0H4l25.7-25.6
			L4,26.7L2.5,26.7z M22.1,95.2v1.5l0,0.5l0.1,0.5l0.2,0.4l0.3,0.4l0.4,0.3l0.4,0.2l0.5,0.1l0.5,0l0.5,0l0.5-0.1l0.4-0.2l0.4-0.3
			L47.5,77l21.2,21.5l0.4,0.3l0.4,0.2l0.5,0.1l0.5,0l0.5,0l0.5-0.1l0.4-0.2l0.4-0.3l0.3-0.4l0.2-0.4l0.1-0.5l0-0.5v-1.5L47.5,69.3
			L22.1,95.2z"/>
		<path class="st0" d="M72.9,89l-25.4-26L22.1,89v-4.6l0-0.5l0-0.5l0.1-0.5l0.1-0.5l0.1-0.5l0.2-0.5l0.2-0.4l0.2-0.4l0.3-0.4
			l0.3-0.4l0.3-0.4l0.3-0.4l21.2-21.7l0.3-0.3L46,57l0.4-0.2l0.4-0.1l0.4-0.1l0.4,0l0.4,0l0.4,0.1l0.4,0.1L49,57l0.3,0.2l0.3,0.3
			l21.2,21.7l0.3,0.4l0.3,0.4l0.3,0.4l0.3,0.4l0.2,0.4l0.2,0.4l0.2,0.5l0.1,0.5l0.1,0.5l0.1,0.5l0,0.5l0,0.5V89z M91,26.7L65.3,52.3
			L91,77.9h1.5l0.5,0l0.5-0.1l0.4-0.2l0.4-0.3l0.3-0.4l0.2-0.4l0.1-0.5l0-0.5l0-0.5l-0.1-0.5L94.6,74l-0.3-0.4L72.9,52.3l21.4-21.3
			l0.3-0.4l0.2-0.4l0.1-0.5l0-0.5l0-0.5l-0.1-0.5l-0.2-0.4l-0.3-0.4l-0.4-0.3l-0.4-0.2L93,26.7l-0.5,0H91z"/>
		<path class="st0" d="M75.4,76.1L75,75.7L53.5,54.4l-0.3-0.3L53,53.8l-0.2-0.4l-0.1-0.4l-0.1-0.4l0-0.4l0-0.4l0.1-0.4l0.1-0.4
			l0.2-0.4l0.2-0.3l0.3-0.3L75,28.8l0.4-0.3l0.4-0.3l0.4-0.3l0.4-0.3l0.4-0.2l0.4-0.2l0.5-0.2l0.5-0.1l0.5-0.1l0.5-0.1l0.5,0l0.5,0
			h4.6L59,52.3l25.9,25.6h-4.6l-0.5,0l-0.5,0l-0.5-0.1l-0.5-0.1l-0.5-0.1l-0.5-0.2L77,77.1l-0.4-0.2l-0.4-0.3l-0.4-0.3L75.4,76.1z
			 M62.8,0.2v6l0,0.6l-0.1,0.6l-0.2,0.5l-0.2,0.5l-0.3,0.5l-0.4,0.4l-0.4,0.4L60.6,10l-0.5,0.3l-0.5,0.2l-0.5,0.1l-0.6,0h-1.7
			l-0.6,0l-0.5-0.1l-0.5-0.2L54.7,10l-0.5-0.3l-0.4-0.4l-0.4-0.4l-0.3-0.5l-0.2-0.5l-0.2-0.5l-0.1-0.6l0-0.6v-6H42.4v6l0,0.6
			l-0.1,0.6l-0.2,0.5l-0.2,0.5l-0.3,0.5l-0.4,0.4l-0.4,0.4L40.3,10l-0.5,0.3l-0.5,0.2l-0.5,0.1l-0.6,0h-1.7l-0.6,0l-0.5-0.1
			l-0.5-0.2L34.4,10l-0.5-0.3l-0.4-0.4l-0.4-0.4l-0.3-0.5l-0.2-0.5l-0.2-0.5l-0.1-0.6l0-0.6v-6H22.1v19l0,0.5l0,0.5l0.1,0.5l0.1,0.5
			l0.1,0.5l0.2,0.5l0.2,0.4l0.2,0.4l0.3,0.4l0.3,0.4l0.3,0.4l0.3,0.3L44.5,45l0.4,0.4l0.5,0.3l0.5,0.3l0.5,0.2l0.5,0.1l0.6,0l0.6,0
			l0.5-0.1l0.5-0.2l0.5-0.3l0.5-0.3l0.4-0.4l20.3-20.6l0.3-0.4l0.3-0.4l0.3-0.4l0.3-0.4l0.2-0.4l0.2-0.4l0.2-0.5l0.1-0.5l0.1-0.5
			l0.1-0.5l0-0.5l0-0.5v-19H62.8z"/>
	</g>
</g>
</svg>
